<?xml version="1.0" encoding="UTF-8" standalone="no"?>
<!-- Created with Inkscape (http://www.inkscape.org/) -->

<svg
   xmlns:dc="http://purl.org/dc/elements/1.1/"
   xmlns:cc="http://creativecommons.org/ns#"
   xmlns:rdf="http://www.w3.org/1999/02/22-rdf-syntax-ns#"
   xmlns:svg="http://www.w3.org/2000/svg"
   xmlns="http://www.w3.org/2000/svg"
   xmlns:sodipodi="http://sodipodi.sourceforge.net/DTD/sodipodi-0.dtd"
   xmlns:inkscape="http://www.inkscape.org/namespaces/inkscape"
   version="1.1"
   id="svg972"
   xml:space="preserve"
   width="231"
   height="145"
   viewBox="0 0 231 145"
   sodipodi:docname="logo.svg"
   inkscape:version="0.92.4 (33fec40, 2019-01-16)"><metadata
     id="metadata978"><rdf:RDF><cc:Work
         rdf:about=""><dc:format>image/svg+xml</dc:format><dc:type
           rdf:resource="http://purl.org/dc/dcmitype/StillImage" /><dc:title></dc:title></cc:Work></rdf:RDF></metadata><defs
     id="defs976"><clipPath
       clipPathUnits="userSpaceOnUse"
       id="clipPath988"><path
         d="M 0,180.793 H 222.696 V 0 H 0 Z"
         id="path986"
         inkscape:connector-curvature="0" /></clipPath></defs><sodipodi:namedview
     pagecolor="#ffffff"
     bordercolor="#666666"
     borderopacity="1"
     objecttolerance="10"
     gridtolerance="10"
     guidetolerance="10"
     inkscape:pageopacity="0"
     inkscape:pageshadow="2"
     inkscape:window-width="1920"
     inkscape:window-height="1016"
     id="namedview974"
     showgrid="false"
     inkscape:zoom="3.4597579"
     inkscape:cx="111.73959"
     inkscape:cy="33.960567"
     inkscape:window-x="0"
     inkscape:window-y="27"
     inkscape:window-maximized="1"
     inkscape:current-layer="g980" /><g
     id="g980"
     inkscape:groupmode="layer"
     inkscape:label="SPARKWEST_STACKED_WHITE"
     transform="matrix(1.3333333,0,0,-1.3333333,-29.909337,219.78039)"><g
       id="g1174"
       transform="translate(-20.355495,24.909095)"
       style="fill:#ffffff"><path
         d="m 73.2775,108.1699 v 8.584 c 0,3.904 -1.908,5.858 -5.723,5.858 h -2.044 c -3.725,0 -5.586,-1.954 -5.586,-5.858 v -16.215 c 0,-1.817 0.362,-3.044 1.09,-3.679 0.726,-0.636 1.908,-1.454 3.543,-2.452 l 12.399,-6.676 c 2.724,-1.546 4.653,-2.749 5.791,-3.611 1.134,-0.864 2.019,-1.908 2.656,-3.134 0.635,-1.226 0.954,-3.566 0.954,-7.017 v -20.847 c 0,-10.991 -5.269,-16.486 -15.806,-16.486 h -8.038 c -10.447,0 -15.669,5.995 -15.669,17.985 v 4.905 h 13.08 v -5.314 c 0,-3.814 1.952,-5.723 5.859,-5.723 h 2.316 c 3.451,0 5.178,1.909 5.178,5.723 v 16.623 c 0,1.816 -0.364,3.043 -1.09,3.679 -0.728,0.634 -1.908,1.452 -3.543,2.453 l -12.399,6.948 c -2.725,1.452 -4.7,2.679 -5.927,3.68 -1.226,0.998 -2.112,2.293 -2.657,3.883 -0.545,1.587 -0.817,3.655 -0.817,6.199 v 20.029 c 0,11.173 5.222,16.759 15.669,16.759 h 8.175 c 10.444,0 15.669,-5.586 15.669,-16.759 v -9.537 z"
         style="fill:#ffffff;fill-opacity:1;fill-rule:nonzero;stroke:none"
         id="path1060"
         inkscape:connector-curvature="0" /><path
         d="m 164.2931,134.4658 -14.442,-97.829 h -14.171 l -8.039,56.682 -7.903,-56.682 h -14.17 l -14.443,97.829 h 12.944 l 9.265,-73.304 9.266,73.304 h 10.218 l 9.266,-73.304 9.265,73.304 z"
         style="fill:#ffffff;fill-opacity:1;fill-rule:nonzero;stroke:none"
         id="path1064"
         inkscape:connector-curvature="0" /><path
         d="m 198.9005,87.1865 v 47.279 h 13.08 v -97.829 h -13.08 v 19.485 l -14.034,44.554 v -64.039 h -13.08 v 97.829 h 13.08 z"
         style="fill:#ffffff;fill-opacity:1;fill-rule:nonzero;stroke:none"
         id="path1068"
         inkscape:connector-curvature="0" /></g></g></svg>